<svg version="1.1" xmlns="http://www.w3.org/2000/svg" viewBox="0 0 283.9976254201447 889.8508522727277" width="567.9952508402894" height="1779.7017045454554">
  <!-- svg-source:excalidraw -->

  <defs>
    <style class="style-fonts">
      @font-face {
        font-family: "Virgil";
        src: url("https://excalidraw.com/Virgil.woff2");
      }
      @font-face {
        font-family: "Cascadia";
        src: url("https://excalidraw.com/Cascadia.woff2");
      }
    </style>

  </defs>
  <g stroke-linecap="round"><g transform="translate(158.81239964848328 152.03783784964523) rotate(39.74158010062462 30.602071538816745 -53.07727075610879)" fill-rule="evenodd"><path d="M0 0 C-0.58 -9.9, -13.52 -41.75, -3.47 -59.41 C6.58 -77.07, 49.54 -109.04, 60.29 -105.95 C71.05 -102.85, 71.11 -58.5, 61.06 -40.84 C51.01 -23.18, 10.18 -6.81, 0 0" stroke="none" stroke-width="0" fill="#ffff" fill-rule="evenodd"></path><path d="M0 0 C-0.58 -9.9, -13.52 -41.75, -3.47 -59.41 C6.58 -77.07, 49.54 -109.04, 60.29 -105.95 C71.05 -102.85, 71.11 -58.5, 61.06 -40.84 C51.01 -23.18, 10.18 -6.81, 0 0 M0 0 C-0.58 -9.9, -13.52 -41.75, -3.47 -59.41 C6.58 -77.07, 49.54 -109.04, 60.29 -105.95 C71.05 -102.85, 71.11 -58.5, 61.06 -40.84 C51.01 -23.18, 10.18 -6.81, 0 0" stroke="#d2e59e" stroke-width="4" fill="none"></path></g></g><mask></mask><g stroke-linecap="round"><g transform="translate(185.1168399117273 354.83445600219324) rotate(42.24589579481517 30.602071538816745 -53.07727075610879)" fill-rule="evenodd"><path d="M0 0 C-0.58 -9.9, -13.52 -41.75, -3.47 -59.41 C6.58 -77.07, 49.54 -109.04, 60.29 -105.95 C71.05 -102.85, 71.11 -58.5, 61.06 -40.84 C51.01 -23.18, 10.18 -6.81, 0 0" stroke="none" stroke-width="0" fill="#ffff" fill-rule="evenodd"></path><path d="M0 0 C-0.58 -9.9, -13.52 -41.75, -3.47 -59.41 C6.58 -77.07, 49.54 -109.04, 60.29 -105.95 C71.05 -102.85, 71.11 -58.5, 61.06 -40.84 C51.01 -23.18, 10.18 -6.81, 0 0 M0 0 C-0.58 -9.9, -13.52 -41.75, -3.47 -59.41 C6.58 -77.07, 49.54 -109.04, 60.29 -105.95 C71.05 -102.85, 71.11 -58.5, 61.06 -40.84 C51.01 -23.18, 10.18 -6.81, 0 0" stroke="#d2e59e" stroke-width="4" fill="none"></path></g></g><mask></mask><g stroke-linecap="round"><g transform="translate(179.95342867693944 574.5594889728292) rotate(29.29464155711269 30.602071538816745 -53.07727075610882)" fill-rule="evenodd"><path d="M0 0 C-0.58 -9.9, -13.52 -41.75, -3.47 -59.41 C6.58 -77.07, 49.54 -109.04, 60.29 -105.95 C71.05 -102.85, 71.11 -58.5, 61.06 -40.84 C51.01 -23.18, 10.18 -6.81, 0 0" stroke="none" stroke-width="0" fill="#eaf2cf" fill-rule="evenodd"></path><path d="M0 0 C-0.58 -9.9, -13.52 -41.75, -3.47 -59.41 C6.58 -77.07, 49.54 -109.04, 60.29 -105.95 C71.05 -102.85, 71.11 -58.5, 61.06 -40.84 C51.01 -23.18, 10.18 -6.81, 0 0 M0 0 C-0.58 -9.9, -13.52 -41.75, -3.47 -59.41 C6.58 -77.07, 49.54 -109.04, 60.29 -105.95 C71.05 -102.85, 71.11 -58.5, 61.06 -40.84 C51.01 -23.18, 10.18 -6.81, 0 0" stroke="#d2e59e" stroke-width="4" fill="none"></path></g></g><mask></mask><g stroke-linecap="round"><g transform="translate(185.1708143399619 786.3482335511833) rotate(31.826463855310173 30.602071538816745 -53.07727075610876)" fill-rule="evenodd"><path d="M0 0 C-0.58 -9.9, -13.52 -41.75, -3.47 -59.41 C6.58 -77.07, 49.54 -109.04, 60.29 -105.95 C71.05 -102.85, 71.11 -58.5, 61.06 -40.84 C51.01 -23.18, 10.18 -6.81, 0 0" stroke="none" stroke-width="0" fill="#ffff" fill-rule="evenodd"></path><path d="M0 0 C-0.58 -9.9, -13.52 -41.75, -3.47 -59.41 C6.58 -77.07, 49.54 -109.04, 60.29 -105.95 C71.05 -102.85, 71.11 -58.5, 61.06 -40.84 C51.01 -23.18, 10.18 -6.81, 0 0 M0 0 C-0.58 -9.9, -13.52 -41.75, -3.47 -59.41 C6.58 -77.07, 49.54 -109.04, 60.29 -105.95 C71.05 -102.85, 71.11 -58.5, 61.06 -40.84 C51.01 -23.18, 10.18 -6.81, 0 0" stroke="#d2e59e" stroke-width="4" fill="none"></path></g></g><mask></mask><g stroke-linecap="round"><g transform="translate(41.91170589531521 673.1169721222527) rotate(270.14084570759775 30.602071538816745 -53.07727075610876)" fill-rule="evenodd"><path d="M0 0 C-0.58 -9.9, -13.52 -41.75, -3.47 -59.41 C6.58 -77.07, 49.54 -109.04, 60.29 -105.95 C71.05 -102.85, 71.11 -58.5, 61.06 -40.84 C51.01 -23.18, 10.18 -6.81, 0 0" stroke="none" stroke-width="0" fill="#ffff" fill-rule="evenodd"></path><path d="M0 0 C-0.58 -9.9, -13.52 -41.75, -3.47 -59.41 C6.58 -77.07, 49.54 -109.04, 60.29 -105.95 C71.05 -102.85, 71.11 -58.5, 61.06 -40.84 C51.01 -23.18, 10.18 -6.81, 0 0 M0 0 C-0.58 -9.9, -13.52 -41.75, -3.47 -59.41 C6.58 -77.07, 49.54 -109.04, 60.29 -105.95 C71.05 -102.85, 71.11 -58.5, 61.06 -40.84 C51.01 -23.18, 10.18 -6.81, 0 0" stroke="#d2e59e" stroke-width="4" fill="none"></path></g></g><mask></mask><g stroke-linecap="round"><g transform="translate(43.13230876744592 460.8812565945044) rotate(259.38423798647483 30.602071538816745 -53.07727075610879)" fill-rule="evenodd"><path d="M0 0 C-0.58 -9.9, -13.52 -41.75, -3.47 -59.41 C6.58 -77.07, 49.54 -109.04, 60.29 -105.95 C71.05 -102.85, 71.11 -58.5, 61.06 -40.84 C51.01 -23.18, 10.18 -6.81, 0 0" stroke="none" stroke-width="0" fill="#ffff" fill-rule="evenodd"></path><path d="M0 0 C-0.58 -9.9, -13.52 -41.75, -3.47 -59.41 C6.58 -77.07, 49.54 -109.04, 60.29 -105.95 C71.05 -102.85, 71.11 -58.5, 61.06 -40.84 C51.01 -23.18, 10.18 -6.81, 0 0 M0 0 C-0.58 -9.9, -13.52 -41.75, -3.47 -59.41 C6.58 -77.07, 49.54 -109.04, 60.29 -105.95 C71.05 -102.85, 71.11 -58.5, 61.06 -40.84 C51.01 -23.18, 10.18 -6.81, 0 0" stroke="#d2e59e" stroke-width="4" fill="none"></path></g></g><mask></mask><g stroke-linecap="round"><g transform="translate(34.593334584487366 254.30597761139148) rotate(265.36122967089267 30.602071538816745 -53.07727075610879)" fill-rule="evenodd"><path d="M0 0 C-0.58 -9.9, -13.52 -41.75, -3.47 -59.41 C6.58 -77.07, 49.54 -109.04, 60.29 -105.95 C71.05 -102.85, 71.11 -58.5, 61.06 -40.84 C51.01 -23.18, 10.18 -6.81, 0 0" stroke="none" stroke-width="0" fill="#ffff" fill-rule="evenodd"></path><path d="M0 0 C-0.58 -9.9, -13.52 -41.75, -3.47 -59.41 C6.58 -77.07, 49.54 -109.04, 60.29 -105.95 C71.05 -102.85, 71.11 -58.5, 61.06 -40.84 C51.01 -23.18, 10.18 -6.81, 0 0 M0 0 C-0.58 -9.9, -13.52 -41.75, -3.47 -59.41 C6.58 -77.07, 49.54 -109.04, 60.29 -105.95 C71.05 -102.85, 71.11 -58.5, 61.06 -40.84 C51.01 -23.18, 10.18 -6.81, 0 0" stroke="#d2e59e" stroke-width="4" fill="none"></path></g></g><mask></mask><g stroke-linecap="round"><g transform="translate(130.27248142382996 10) rotate(0 6.924767391520845 434.92542613636385)"><path d="M0 0 C-10.38 10.85, -71.3 37.85, -62.28 65.09 C-53.26 92.34, 52.89 130.78, 54.13 163.48 C55.36 196.17, -57.11 229.96, -54.86 261.28 C-52.61 292.6, 68.02 314.72, 67.62 351.42 C67.22 388.12, -58.19 442.89, -57.28 481.49 C-56.36 520.09, 73.5 548.6, 73.1 583.01 C72.7 617.43, -59.98 654.37, -59.67 687.98 C-59.37 721.59, 61.24 754.37, 74.94 784.68 C88.63 814.99, 31.24 855.66, 22.5 869.85 M0 0 C-10.38 10.85, -71.3 37.85, -62.28 65.09 C-53.26 92.34, 52.89 130.78, 54.13 163.48 C55.36 196.17, -57.11 229.96, -54.86 261.28 C-52.61 292.6, 68.02 314.72, 67.62 351.42 C67.22 388.12, -58.19 442.89, -57.28 481.49 C-56.36 520.09, 73.5 548.6, 73.1 583.01 C72.7 617.43, -59.98 654.37, -59.67 687.98 C-59.37 721.59, 61.24 754.37, 74.94 784.68 C88.63 814.99, 31.24 855.66, 22.5 869.85" stroke="#d2e59e" stroke-width="4" fill="none"></path></g></g><mask></mask></svg>
