<svg version="1.1" xmlns="http://www.w3.org/2000/svg" viewBox="0 0 99.02020668474415 108.50779347475259" width="198.0404133694883" height="217.01558694950518">
  <!-- svg-source:excalidraw -->

  <defs>
    <style class="style-fonts">
      @font-face {
        font-family: "Virgil";
        src: url("https://excalidraw.com/Virgil.woff2");
      }
      @font-face {
        font-family: "Cascadia";
        src: url("https://excalidraw.com/Cascadia.woff2");
      }
    </style>

  </defs>
  <g stroke-linecap="round"><g transform="translate(19.331316948623794 104.59499455575622) rotate(10.487481248055987 28.849988410475305 -50.038398355846084)" fill-rule="evenodd"><path d="M0 0 C-0.54 -9.33, -12.74 -39.36, -3.27 -56.01 C6.2 -72.65, 46.7 -102.8, 56.84 -99.88 C66.98 -96.96, 67.04 -55.15, 57.57 -38.5 C48.09 -21.85, 9.59 -6.42, 0 0" stroke="none" stroke-width="0" fill="#eaf2cf" fill-rule="evenodd"></path><path d="M0 0 C-0.54 -9.33, -12.74 -39.36, -3.27 -56.01 C6.2 -72.65, 46.7 -102.8, 56.84 -99.88 C66.98 -96.96, 67.04 -55.15, 57.57 -38.5 C48.09 -21.85, 9.59 -6.42, 0 0 M0 0 C-0.54 -9.33, -12.74 -39.36, -3.27 -56.01 C6.2 -72.65, 46.7 -102.8, 56.84 -99.88 C66.98 -96.96, 67.04 -55.15, 57.57 -38.5 C48.09 -21.85, 9.59 -6.42, 0 0" stroke="#d2e59e" stroke-width="4" fill="none"></path></g></g><mask></mask></svg>
